HIERARCHY
ROOT SpineBase
{
  OFFSET 0.000000 0.000000 0.000000
  CHANNELS 6 Xposition Yposition Zposition Zrotation Xrotation Yrotation
  JOINT SpineMid
  {
    OFFSET 0.000000 30.283255 0.000000
    CHANNELS 3 Zrotation Xrotation Yrotation
    JOINT SpineShoulder
    {
      OFFSET -0.078648 22.597382 -0.798402
      CHANNELS 3 Zrotation Xrotation Yrotation
      JOINT Neck
      {
        OFFSET -0.043217 7.574905 -0.604295
        CHANNELS 3 Zrotation Xrotation Yrotation
        JOINT Head
        {
          OFFSET 6.255768 9.489500 2.999345
          CHANNELS 3 Zrotation Xrotation Yrotation
          End Site
          {
            OFFSET 0 0 0
          }
        }
      }
      JOINT ShoulderLeft
      {
        OFFSET -5.043905 -2.025873 -11.826622
        CHANNELS 3 Zrotation Xrotation Yrotation
        JOINT ElbowLeft
        {
          OFFSET 1.630323 -21.543639 -7.856020
          CHANNELS 3 Zrotation Xrotation Yrotation
          JOINT WristLeft
          {
            OFFSET 6.023568 -22.740078 -0.380512
            CHANNELS 3 Zrotation Xrotation Yrotation
            JOINT HandLeft
            {
              OFFSET 0.854016 -9.112182 2.400542
              CHANNELS 3 Zrotation Xrotation Yrotation
              JOINT HandTipLeft
              {
                OFFSET 4.289526 -7.414299 -1.103822
                CHANNELS 3 Zrotation Xrotation Yrotation
                End Site
                {
                  OFFSET 0 0 0
                }
              }
              JOINT ThumbLeft
              {
                OFFSET -4.477553 1.707223 2.298495
                CHANNELS 3 Zrotation Xrotation Yrotation
                End Site
                {
                  OFFSET 0 0 0
                }
              }
            }
          }
        }
      }
      JOINT ShoulderRight
      {
        OFFSET 7.838771 -7.527633 -11.565105
        CHANNELS 3 Zrotation Xrotation Yrotation
        JOINT ElbowRight
        {
          OFFSET 2.610725 -26.879757 -3.833053
          CHANNELS 3 Zrotation Xrotation Yrotation
          JOINT WristRight
          {
            OFFSET 5.720045 -26.118864 3.136521
            CHANNELS 3 Zrotation Xrotation Yrotation
            JOINT HandRight
            {
              OFFSET -7.181857 -3.403237 -4.661580
              CHANNELS 3 Zrotation Xrotation Yrotation
              JOINT HandTipRight
              {
                OFFSET 0.129868 -2.247221 0.154489
                CHANNELS 3 Zrotation Xrotation Yrotation
                End Site
                {
                  OFFSET 0 0 0
                }
              }
              JOINT ThumbRight
              {
                OFFSET 1.436185 1.419898 0.400031
                CHANNELS 3 Zrotation Xrotation Yrotation
                End Site
                {
                  OFFSET 0 0 0
                }
              }
            }
          }
        }
      }
    }
  }
  JOINT HipLeft
  {
    OFFSET -6.069765 1.775677 -6.166726
    CHANNELS 3 Zrotation Xrotation Yrotation
    JOINT KneeLeft
    {
      OFFSET -2.512658 -40.799858 0.146604
      CHANNELS 3 Zrotation Xrotation Yrotation
      JOINT AnkleLeft
      {
        OFFSET -5.965936 -34.648630 2.017678
        CHANNELS 3 Zrotation Xrotation Yrotation
        JOINT FootLeft
        {
          OFFSET 0.172947 -2.520117 -12.583575
          CHANNELS 3 Zrotation Xrotation Yrotation
          End Site
          {
            OFFSET 0 0 0
          }
        }
      }
    }
  }
  JOINT HipRight
  {
    OFFSET 5.881235 1.124061 -0.139677
    CHANNELS 3 Zrotation Xrotation Yrotation
    JOINT KneeRight
    {
      OFFSET -4.969359 -33.593820 -5.834823
      CHANNELS 3 Zrotation Xrotation Yrotation
      JOINT AnkleRight
      {
        OFFSET -5.262641 -25.266588 1.811246
        CHANNELS 3 Zrotation Xrotation Yrotation
        JOINT FootRight
        {
          OFFSET 0.074891 -2.619991 -12.655094
          CHANNELS 3 Zrotation Xrotation Yrotation
          End Site
          {
            OFFSET 0 0 0
          }
        }
      }
    }
  }
}
MOTION
Frames: 16
Frame Time: 0.033333
11.040841 78.349771 294.004614 -0.000000 0.000000 -26.762416 -0.000000 0.000000 26.762416 -0.000000 0.000000 0.000000 -0.000000 0.000000 0.000000 0.000000 0.000000 0.000000 -0.000000 0.000000 0.000000 -0.000000 0.000000 0.000000 -0.000000 0.000000 0.000000 -0.000000 0.000000 0.000000 0.000000 0.000000 0.000000 0.000000 0.000000 0.000000 -0.000000 0.000000 0.000000 -0.000000 0.000000 0.000000 -0.000000 0.000000 0.000000 -0.000000 0.000000 0.000000 0.000000 0.000000 0.000000 0.000000 0.000000 0.000000 -0.000000 0.000000 26.762416 -0.000000 0.000000 0.000000 -0.000000 0.000000 0.000000 0.000000 0.000000 0.000000 -0.000000 0.000000 26.762416 -0.000000 0.000000 0.000000 -0.000000 0.000000 0.000000 0.000000 0.000000 0.000000
11.031869 78.354250 293.980245 -0.021450 0.017351 -26.445636 0.026932 -0.005982 26.445640 -0.000000 0.000000 0.000000 -0.000000 0.000000 0.000000 0.000000 0.000000 0.000000 -0.000000 0.000000 0.000000 -0.000000 0.000000 0.000000 1.942032 5.188201 0.919749 -5.835024 -8.254579 -2.866450 0.000000 0.000000 0.000000 0.000000 0.000000 0.000000 -0.000000 0.000000 0.000000 -0.000000 0.000000 0.000000 2.164545 -1.818964 0.967610 -6.509655 11.665946 -0.121344 0.000000 0.000000 0.000000 0.000000 0.000000 0.000000 0.026932 -0.005982 26.445640 -0.000000 0.000000 0.000000 -0.000000 0.000000 0.000000 0.000000 0.000000 0.000000 0.026932 -0.005982 26.445640 -0.000000 0.000000 0.000000 -0.000000 0.000000 0.000000 0.000000 0.000000 0.000000
11.026361 78.350228 293.951292 -0.046277 0.040942 -26.073873 0.059562 -0.016436 26.073898 -0.000000 0.000000 0.000000 -0.000000 0.000000 0.000000 0.000000 0.000000 0.000000 -0.000000 0.000000 0.000000 -0.000000 0.000000 0.000000 3.466134 9.519810 1.548465 -11.281587 -15.082549 -6.306944 0.000000 0.000000 0.000000 0.000000 0.000000 0.000000 -0.000000 0.000000 0.000000 -0.000000 0.000000 0.000000 3.910005 -3.197726 1.687234 -12.697122 22.058394 0.992378 0.000000 0.000000 0.000000 0.000000 0.000000 0.000000 0.059562 -0.016436 26.073898 -0.000000 0.000000 0.000000 -0.000000 0.000000 0.000000 0.000000 0.000000 0.000000 0.059562 -0.016436 26.073898 -0.000000 0.000000 0.000000 -0.000000 0.000000 0.000000 0.000000 0.000000 0.000000
11.024317 78.337705 293.917753 -0.074471 0.070766 -25.646768 0.097763 -0.031562 25.646841 -0.000000 0.000000 0.000000 -0.000000 0.000000 0.000000 0.000000 0.000000 0.000000 -0.000000 0.000000 0.000000 -0.000000 0.000000 0.000000 4.555902 12.831123 1.946131 -15.847327 -20.200569 -9.691711 0.000000 0.000000 0.000000 0.000000 0.000000 0.000000 -0.000000 0.000000 0.000000 -0.000000 0.000000 0.000000 5.310861 -4.232867 2.176282 -17.919031 29.122437 2.605699 0.000000 0.000000 0.000000 0.000000 0.000000 0.000000 0.097763 -0.031562 25.646841 -0.000000 0.000000 0.000000 -0.000000 0.000000 0.000000 0.000000 0.000000 0.000000 -0.567792 -0.889629 25.881899 0.973386 0.481403 -0.244499 -0.000000 0.000000 0.000000 0.000000 0.000000 0.000000
11.025738 78.316680 293.879629 -0.106020 0.106808 -25.163996 0.141374 -0.051590 25.164158 -0.000000 0.000000 0.000000 -0.000000 0.000000 0.000000 0.000000 0.000000 0.000000 -0.000000 0.000000 0.000000 -0.000000 0.000000 0.000000 5.199863 15.032178 2.167119 -18.934448 -23.555061 -12.315142 0.000000 0.000000 0.000000 0.000000 0.000000 0.000000 -0.000000 0.000000 0.000000 -0.000000 0.000000 0.000000 6.421602 -4.989725 2.446747 -21.232674 31.837997 3.640012 0.000000 0.000000 0.000000 0.000000 0.000000 0.000000 0.141374 -0.051590 25.164158 -0.000000 0.000000 0.000000 -0.000000 0.000000 0.000000 0.000000 0.000000 0.000000 -0.704739 -1.166866 25.466461 1.243514 0.642947 -0.318277 -0.000000 0.000000 0.000000 0.000000 0.000000 0.000000
11.030623 78.287154 293.836921 -0.140912 0.149050 -24.625280 0.190203 -0.076778 24.625591 -0.000000 0.000000 0.000000 -0.000000 0.000000 0.000000 0.000000 0.000000 0.000000 -0.000000 0.000000 0.000000 -0.000000 0.000000 0.000000 5.386992 16.073096 2.248876 -20.032404 -25.211078 -13.590104 0.000000 0.000000 0.000000 0.000000 0.000000 0.000000 -0.000000 0.000000 0.000000 -0.000000 0.000000 0.000000 7.280759 -5.510480 2.503112 -22.104908 30.219744 3.442406 0.000000 0.000000 0.000000 0.000000 0.000000 0.000000 0.190203 -0.076778 24.625591 -0.000000 0.000000 0.000000 0.161803 -0.050814 -0.813047 0.000000 0.000000 0.000000 -0.820444 -1.438261 24.990884 1.491336 0.806772 -0.389157 0.178846 0.006523 -0.863398 0.000000 0.000000 0.000000
11.034895 78.254130 293.791024 -0.173295 0.202193 -24.238458 0.241026 -0.113224 24.239002 -0.000000 0.000000 0.000000 0.258032 -0.713990 0.392094 0.000000 0.000000 0.000000 -0.000000 0.000000 0.000000 -0.853303 0.816134 0.236983 5.196855 14.205814 1.879520 -15.551796 -23.891501 -11.430493 0.000000 0.000000 0.000000 0.000000 0.000000 0.000000 -0.000000 0.000000 0.000000 -0.000000 0.000000 0.000000 8.224442 -5.963000 2.238500 -16.179009 12.789086 -0.209557 0.000000 0.000000 0.000000 0.000000 0.000000 0.000000 0.241026 -0.113224 24.239002 -0.000000 0.000000 0.000000 0.193018 -0.053111 -0.969451 0.000000 0.000000 0.000000 -0.983209 -1.716677 24.669268 1.781942 0.945675 -0.464525 0.213278 0.013411 -1.029156 0.000000 0.000000 0.000000
11.045493 78.196832 293.734421 -0.218785 0.266729 -23.577583 0.307211 -0.156948 23.578513 -0.000000 0.000000 0.000000 0.213269 -0.732330 0.418092 0.000000 0.000000 0.000000 -0.000000 0.000000 0.000000 -1.192053 1.260374 0.367876 4.294465 11.917570 1.461669 -10.417013 -21.993288 -9.272769 0.000000 0.000000 0.000000 0.000000 0.000000 0.000000 -0.000000 0.000000 0.000000 -0.000000 0.000000 0.000000 8.236280 -5.697878 1.466322 -13.297995 7.694963 -0.279662 0.000000 0.000000 0.000000 0.000000 0.000000 0.000000 0.307211 -0.156948 23.578513 -0.000000 0.000000 0.000000 0.220098 -0.051414 -1.104733 0.000000 0.000000 0.000000 -1.094950 -2.013658 24.072500 2.037863 1.122585 -0.540517 0.242773 0.020799 -1.170955 0.000000 0.000000 0.000000
11.061835 78.142018 293.679673 -0.271269 0.317077 -22.813733 0.372992 -0.187087 22.815093 -0.000000 0.000000 0.000000 -0.000000 0.000000 0.000000 0.000000 0.000000 0.000000 -0.000000 0.000000 0.000000 -1.481029 1.698261 0.498196 4.317570 10.656844 1.259997 -10.058280 -20.301389 -8.323382 0.000000 0.000000 0.000000 0.000000 0.000000 0.000000 -0.000000 0.000000 0.000000 -0.000000 0.000000 0.000000 8.170357 -5.659825 1.468601 -10.672984 2.586958 -0.827352 0.000000 0.000000 0.000000 0.000000 0.000000 0.000000 0.372992 -0.187087 22.815093 -0.000000 0.000000 0.000000 0.239192 -0.050157 -1.200092 0.000000 0.000000 0.000000 -1.146056 -2.248791 23.358410 2.212428 1.289507 -0.600513 0.263007 0.022894 -1.268418 0.000000 0.000000 0.000000
11.083257 78.098808 293.623912 -0.324429 0.366396 -22.074833 0.438347 -0.217605 22.076703 -0.000000 0.000000 0.000000 -0.000000 0.000000 0.000000 0.000000 0.000000 0.000000 -0.000000 0.000000 0.000000 -1.741868 1.992160 0.589385 4.725833 9.183574 1.142631 -9.267623 -19.093751 -7.888803 0.000000 0.000000 0.000000 0.000000 0.000000 0.000000 -0.000000 0.000000 0.000000 -0.000000 0.000000 0.000000 9.836032 -6.491763 1.035929 -13.808301 -0.576266 -0.392614 0.000000 0.000000 0.000000 0.000000 0.000000 0.000000 0.438347 -0.217605 22.076703 -0.000000 0.000000 0.000000 0.251118 -0.046443 -1.259292 0.000000 0.000000 0.000000 -1.115653 -2.392564 22.644769 2.272152 1.407900 -0.631389 0.274659 0.021030 -1.324786 0.000000 0.000000 0.000000
11.106962 78.075837 293.570818 -0.370928 0.413081 -21.480552 0.496432 -0.248551 21.482966 -0.741918 0.436798 -0.053886 0.742350 -0.436063 0.059539 0.000000 0.000000 0.000000 0.742350 -0.436063 0.059539 -2.016413 2.175452 0.651175 5.897106 7.740485 1.213676 -10.415237 -16.682836 -7.200701 0.000000 0.000000 0.000000 0.000000 0.000000 0.000000 0.742350 -0.436063 0.059539 -0.000000 0.000000 0.000000 7.410067 -4.314913 -0.954072 -11.521072 -1.722975 0.971186 0.000000 0.000000 0.000000 0.000000 0.000000 0.000000 0.496432 -0.248551 21.482966 -0.000000 0.000000 0.000000 0.262880 -0.041859 -1.317542 0.000000 0.000000 0.000000 -1.059494 -2.572534 22.079274 2.316091 1.567502 -0.666307 0.286470 0.022989 -1.381610 0.000000 0.000000 0.000000
11.127843 78.069690 293.524134 -0.424747 0.443104 -21.254565 0.556491 -0.258975 21.257465 -0.789409 0.471202 -0.057063 0.789904 -0.470371 0.063552 0.000000 0.000000 0.000000 0.789904 -0.470371 0.063552 -2.111524 2.144260 0.645855 6.785908 7.512037 1.378740 -11.411135 -16.183557 -7.318846 0.000000 0.000000 0.000000 0.000000 0.000000 0.000000 0.789904 -0.470371 0.063552 -0.000000 0.000000 0.000000 6.991455 -3.640622 -2.030552 -11.978546 4.055975 2.498128 0.000000 0.000000 0.000000 0.000000 0.000000 0.000000 0.556491 -0.258975 21.257465 -0.000000 0.000000 0.000000 0.258462 -0.037271 -1.294888 0.000000 0.000000 0.000000 -0.924292 -2.736757 21.876547 2.298279 1.746376 -0.692834 0.281516 0.025680 -1.357484 0.000000 0.000000 0.000000
11.147695 78.084944 293.488710 -0.479087 0.453412 -21.134494 0.610348 -0.250159 21.137722 -0.837289 0.491930 -0.060419 0.837838 -0.490995 0.067603 0.000000 0.000000 0.000000 0.837838 -0.490995 0.067603 -1.950208 1.904680 0.572046 7.081586 8.495460 1.557052 -15.043765 -15.952229 -7.498708 0.000000 0.000000 0.000000 0.000000 0.000000 0.000000 0.837838 -0.490995 0.067603 -0.000000 0.000000 0.000000 7.919639 -4.349197 -1.722621 -15.187205 11.644941 3.284831 0.000000 0.000000 0.000000 0.000000 0.000000 0.000000 0.610348 -0.250159 21.137722 -0.000000 0.000000 0.000000 0.253175 -0.036620 -1.268382 0.000000 0.000000 0.000000 -0.742340 -2.909649 21.781083 2.244063 1.966493 -0.719186 0.275617 0.024381 -1.329132 0.000000 0.000000 0.000000
11.165463 78.135811 293.465198 -0.522280 0.449239 -21.201596 -0.177372 -0.145894 21.177385 -0.136256 0.124019 -0.041748 1.541509 -1.083910 0.256609 0.000000 0.000000 0.000000 0.877212 -0.500408 0.070930 -1.644858 1.479342 0.442228 7.625950 10.945736 1.892802 -22.797394 -17.843581 -9.809001 0.000000 0.000000 0.000000 0.000000 0.000000 0.000000 0.877212 -0.500408 0.070930 -0.000000 0.000000 0.000000 6.893217 -3.406022 -2.473050 -15.814526 27.120802 6.191303 0.000000 0.000000 0.000000 0.000000 0.000000 0.000000 0.649400 -0.229930 21.204946 -0.000000 0.000000 0.000000 0.245752 -0.037979 -1.231438 0.000000 0.000000 0.000000 -0.550489 -3.051139 21.867461 2.165649 2.170182 -0.737902 0.267649 0.021431 -1.290934 0.000000 0.000000 0.000000
11.189876 78.180173 293.446994 -0.554102 0.429394 -21.154895 -0.188833 -0.135350 21.129388 -0.123308 0.132185 -0.042259 1.888159 -1.112778 0.179807 0.000000 0.000000 0.000000 0.902925 -0.502455 0.073097 -1.245647 1.050825 0.311475 7.134081 11.620389 1.955797 -23.052368 -17.754076 -9.694826 0.000000 0.000000 0.000000 0.000000 0.000000 0.000000 0.902925 -0.502455 0.073097 -0.000000 0.000000 0.000000 7.216021 -3.711998 -2.220750 -41.942159 77.778788 36.217282 0.000000 0.000000 0.000000 0.000000 0.000000 0.000000 0.671727 -0.200467 21.158147 -0.000000 0.000000 0.000000 0.239482 -0.041819 -1.200550 0.000000 0.000000 0.000000 -0.181133 -3.322220 21.852049 1.955145 2.579115 -0.764143 0.260702 0.021712 -1.257394 0.000000 0.000000 0.000000
11.219902 78.224605 293.405254 -0.578116 0.437028 -20.940332 -0.179963 -0.129308 20.914555 -0.114887 0.130319 -0.042162 2.264129 -1.223236 0.137751 0.000000 0.000000 0.000000 1.659979 -0.307941 -0.179964 -1.648718 0.571422 0.482335 5.748799 10.629103 1.754593 -20.843571 -15.261122 -7.412355 0.000000 0.000000 0.000000 0.000000 0.000000 0.000000 0.907867 -0.509840 0.073529 -0.000000 0.000000 0.000000 6.597983 -3.151537 -2.632535 -152.080606 80.377923 150.156744 0.000000 0.000000 0.000000 0.000000 0.000000 0.000000 0.696128 -0.201527 20.943761 -0.000000 0.000000 0.000000 0.234357 -0.039982 -1.174708 0.000000 0.000000 0.000000 -0.189580 -3.450608 21.664226 1.360792 5.742434 -1.431946 0.997681 -2.994802 -0.524902 0.000000 0.000000 0.000000
